<svg width="398" height="450" viewBox="0 0 398 450" fill="none" xmlns="http://www.w3.org/2000/svg">
<path d="M345.834 37.6805C345.834 36.5759 344.939 35.6805 343.834 35.6805C342.73 35.6805 341.834 36.5759 341.834 37.6805H345.834ZM341.834 37.6805V95.3787H345.834V37.6805H341.834Z" fill="#855106"/>
<line x1="49.636" y1="116.489" x2="134.489" y2="31.636" stroke="#653D04" stroke-width="18"/>
<line x1="48.8758" y1="449.811" x2="48.8757" y2="3.09547e-05" stroke="#6B4104" stroke-width="20"/>
<line y1="-10" x2="376.805" y2="-10" transform="matrix(1 0 0 -1 21.1953 20.0177)" stroke="#523102" stroke-width="20"/>
<path d="M367.74 125.994C367.74 135.688 364.822 144.386 360.201 150.614C355.58 156.842 349.356 160.497 342.657 160.497C335.958 160.497 329.733 156.842 325.113 150.614C320.492 144.386 317.574 135.688 317.574 125.994C317.574 116.3 320.492 107.602 325.113 101.374C329.733 95.1463 335.958 91.4911 342.657 91.4911C349.356 91.4911 355.58 95.1463 360.201 101.374C364.822 107.602 367.74 116.3 367.74 125.994Z" stroke="#855106" stroke-width="4"/>
<line x1="4" y1="445.811" x2="93.7337" y2="445.811" stroke="#653D04" stroke-width="8" stroke-linecap="round"/>
<circle cx="343" cy="126" r="34" fill="#1B1B1B"/>
</svg>
