<svg width="398" height="450" viewBox="0 0 398 450" fill="none" xmlns="http://www.w3.org/2000/svg">
<path d="M345.834 37.6805C345.834 36.5759 344.939 35.6805 343.834 35.6805C342.73 35.6805 341.834 36.5759 341.834 37.6805H345.834ZM341.834 37.6805V95.3787H345.834V37.6805H341.834Z" fill="#855106"/>
<line x1="49.636" y1="116.489" x2="134.489" y2="31.636" stroke="#653D04" stroke-width="18"/>
<line x1="48.8758" y1="449.811" x2="48.8757" y2="3.09547e-05" stroke="#6B4104" stroke-width="20"/>
<line y1="-10" x2="376.805" y2="-10" transform="matrix(1 0 0 -1 21.1953 20.0177)" stroke="#523102" stroke-width="20"/>
<path d="M369.166 128.503C369.166 138.197 366.248 146.895 361.627 153.123C357.006 159.351 350.782 163.006 344.083 163.006C337.384 163.006 331.159 159.351 326.539 153.123C321.918 146.895 319 138.197 319 128.503C319 118.809 321.918 110.111 326.539 103.883C331.159 97.6551 337.384 94 344.083 94C350.782 94 357.006 97.6551 361.627 103.883C366.248 110.111 369.166 118.809 369.166 128.503Z" stroke="#855106" stroke-width="4"/>
<line x1="4" y1="445.811" x2="93.7337" y2="445.811" stroke="#653D04" stroke-width="8" stroke-linecap="round"/>
</svg>
