<svg width="180" height="120" viewBox="0 0 568 309" fill="none" xmlns="http://www.w3.org/2000/svg">
<line y1="-9" x2="96.7168" y2="-9" transform="matrix(0.797976 -0.602689 0.797976 0.602689 50.9347 84.3944)" stroke="#653D04" stroke-width="18"/>
<line x1="43.5503" y1="309" x2="43.5503" y2="3.3014e-07" stroke="#6B4104" stroke-width="20"/>
<line y1="-10" x2="342.722" y2="-10" transform="matrix(1 0 0 -1 19.2781 13.7513)" stroke="#523102" stroke-width="20"/>
<line x1="4" y1="305" x2="84.8935" y2="305" stroke="#653D04" stroke-width="8" stroke-linecap="round"/>
<path d="M107.808 70.0909H118.447V105.588C118.447 108.869 117.71 111.72 116.235 114.139C114.777 116.559 112.747 118.423 110.145 119.732C107.543 121.041 104.519 121.696 101.072 121.696C98.0059 121.696 95.2218 121.157 92.7195 120.08C90.2337 118.987 88.2616 117.329 86.8033 115.109C85.3449 112.871 84.6241 110.062 84.6406 106.682H95.3544C95.3875 108.024 95.661 109.176 96.1747 110.137C96.705 111.082 97.4259 111.811 98.3374 112.325C99.2654 112.822 100.359 113.07 101.619 113.07C102.944 113.07 104.063 112.789 104.974 112.225C105.902 111.645 106.607 110.8 107.087 109.69C107.568 108.579 107.808 107.212 107.808 105.588V70.0909ZM144.399 121.746C140.538 121.746 137.199 120.925 134.381 119.285C131.581 117.628 129.418 115.324 127.893 112.374C126.369 109.408 125.607 105.969 125.607 102.058C125.607 98.1141 126.369 94.6671 127.893 91.7173C129.418 88.7509 131.581 86.4474 134.381 84.8068C137.199 83.1496 140.538 82.321 144.399 82.321C148.26 82.321 151.591 83.1496 154.392 84.8068C157.209 86.4474 159.38 88.7509 160.905 91.7173C162.429 94.6671 163.192 98.1141 163.192 102.058C163.192 105.969 162.429 109.408 160.905 112.374C159.38 115.324 157.209 117.628 154.392 119.285C151.591 120.925 148.26 121.746 144.399 121.746ZM144.449 113.543C146.205 113.543 147.672 113.045 148.849 112.051C150.025 111.04 150.912 109.665 151.509 107.925C152.122 106.185 152.428 104.204 152.428 101.984C152.428 99.763 152.122 97.7827 151.509 96.0426C150.912 94.3026 150.025 92.9271 148.849 91.9162C147.672 90.9053 146.205 90.3999 144.449 90.3999C142.676 90.3999 141.184 90.9053 139.974 91.9162C138.781 92.9271 137.878 94.3026 137.265 96.0426C136.668 97.7827 136.37 99.763 136.37 101.984C136.37 104.204 136.668 106.185 137.265 107.925C137.878 109.665 138.781 111.04 139.974 112.051C141.184 113.045 142.676 113.543 144.449 113.543ZM187.279 136.114C183.849 136.114 180.907 135.641 178.455 134.697C176.018 133.769 174.08 132.501 172.638 130.893C171.196 129.286 170.26 127.48 169.829 125.474L179.623 124.157C179.921 124.919 180.393 125.632 181.04 126.295C181.686 126.958 182.54 127.488 183.6 127.886C184.677 128.3 185.987 128.507 187.528 128.507C189.831 128.507 191.729 127.944 193.22 126.817C194.728 125.706 195.482 123.842 195.482 121.224V114.239H195.035C194.571 115.299 193.875 116.302 192.947 117.246C192.019 118.191 190.826 118.962 189.367 119.558C187.909 120.155 186.169 120.453 184.147 120.453C181.28 120.453 178.67 119.79 176.317 118.464C173.98 117.122 172.116 115.076 170.724 112.325C169.348 109.557 168.661 106.06 168.661 101.835C168.661 97.5092 169.365 93.8965 170.773 90.9964C172.182 88.0964 174.055 85.9254 176.391 84.4837C178.745 83.0419 181.321 82.321 184.122 82.321C186.26 82.321 188.05 82.6856 189.491 83.4148C190.933 84.1274 192.093 85.0223 192.972 86.0994C193.866 87.16 194.554 88.2041 195.035 89.2315H195.433V82.8182H205.947V121.373C205.947 124.621 205.152 127.339 203.561 129.526C201.97 131.714 199.766 133.354 196.949 134.448C194.148 135.558 190.925 136.114 187.279 136.114ZM187.503 112.499C189.21 112.499 190.652 112.076 191.828 111.231C193.021 110.369 193.933 109.143 194.562 107.552C195.209 105.944 195.532 104.022 195.532 101.785C195.532 99.5476 195.217 97.6087 194.587 95.968C193.958 94.3108 193.046 93.0265 191.853 92.1151C190.66 91.2036 189.21 90.7479 187.503 90.7479C185.763 90.7479 184.296 91.2202 183.103 92.1648C181.91 93.0928 181.007 94.3854 180.393 96.0426C179.78 97.6998 179.474 99.6139 179.474 101.785C179.474 103.989 179.78 105.895 180.393 107.502C181.023 109.093 181.926 110.328 183.103 111.206C184.296 112.068 185.763 112.499 187.503 112.499ZM231.626 121.746C227.764 121.746 224.425 120.925 221.608 119.285C218.807 117.628 216.645 115.324 215.12 112.374C213.595 109.408 212.833 105.969 212.833 102.058C212.833 98.1141 213.595 94.6671 215.12 91.7173C216.645 88.7509 218.807 86.4474 221.608 84.8068C224.425 83.1496 227.764 82.321 231.626 82.321C235.487 82.321 238.818 83.1496 241.619 84.8068C244.436 86.4474 246.607 88.7509 248.131 91.7173C249.656 94.6671 250.418 98.1141 250.418 102.058C250.418 105.969 249.656 109.408 248.131 112.374C246.607 115.324 244.436 117.628 241.619 119.285C238.818 120.925 235.487 121.746 231.626 121.746ZM231.675 113.543C233.432 113.543 234.899 113.045 236.075 112.051C237.252 111.04 238.138 109.665 238.735 107.925C239.348 106.185 239.655 104.204 239.655 101.984C239.655 99.763 239.348 97.7827 238.735 96.0426C238.138 94.3026 237.252 92.9271 236.075 91.9162C234.899 90.9053 233.432 90.3999 231.675 90.3999C229.902 90.3999 228.411 90.9053 227.201 91.9162C226.008 92.9271 225.105 94.3026 224.491 96.0426C223.895 97.7827 223.597 99.763 223.597 101.984C223.597 104.204 223.895 106.185 224.491 107.925C225.105 109.665 226.008 111.04 227.201 112.051C228.411 113.045 229.902 113.543 231.675 113.543ZM287.575 121.621C284.675 121.621 282.048 120.876 279.695 119.384C277.358 117.876 275.502 115.664 274.127 112.747C272.768 109.814 272.088 106.218 272.088 101.959C272.088 97.5838 272.793 93.9463 274.201 91.0462C275.61 88.1295 277.482 85.9503 279.819 84.5085C282.172 83.0502 284.749 82.321 287.55 82.321C289.688 82.321 291.469 82.6856 292.894 83.4148C294.336 84.1274 295.496 85.0223 296.374 86.0994C297.269 87.16 297.949 88.2041 298.413 89.2315H298.736V70.0909H309.301V121H298.86V114.885H298.413C297.916 115.946 297.211 116.998 296.3 118.042C295.405 119.069 294.237 119.923 292.795 120.602C291.37 121.282 289.63 121.621 287.575 121.621ZM290.931 113.195C292.637 113.195 294.079 112.731 295.256 111.803C296.449 110.858 297.36 109.54 297.99 107.85C298.637 106.16 298.96 104.179 298.96 101.909C298.96 99.6387 298.645 97.6667 298.015 95.9929C297.385 94.3191 296.474 93.0265 295.281 92.1151C294.088 91.2036 292.637 90.7479 290.931 90.7479C289.191 90.7479 287.724 91.2202 286.531 92.1648C285.338 93.1094 284.434 94.4186 283.821 96.0923C283.208 97.7661 282.901 99.705 282.901 101.909C282.901 104.13 283.208 106.094 283.821 107.8C284.451 109.491 285.354 110.817 286.531 111.778C287.724 112.722 289.191 113.195 290.931 113.195ZM328.895 121.721C326.459 121.721 324.288 121.298 322.382 120.453C320.476 119.591 318.968 118.324 317.858 116.65C316.764 114.96 316.217 112.855 316.217 110.336C316.217 108.215 316.607 106.433 317.386 104.991C318.165 103.55 319.225 102.39 320.567 101.511C321.91 100.633 323.434 99.9702 325.141 99.5227C326.865 99.0753 328.671 98.7604 330.56 98.5781C332.781 98.3461 334.571 98.1307 335.93 97.9318C337.289 97.7164 338.275 97.4015 338.888 96.9872C339.501 96.5729 339.808 95.9598 339.808 95.1477V94.9986C339.808 93.4242 339.31 92.2062 338.316 91.3445C337.338 90.4827 335.946 90.0518 334.14 90.0518C332.234 90.0518 330.718 90.4744 329.591 91.3196C328.464 92.1482 327.718 93.1922 327.354 94.4517L317.56 93.6562C318.057 91.3362 319.035 89.331 320.493 87.6406C321.951 85.9337 323.832 84.6245 326.136 83.7131C328.456 82.785 331.14 82.321 334.19 82.321C336.311 82.321 338.341 82.5696 340.28 83.0668C342.235 83.5639 343.967 84.3345 345.475 85.3785C347 86.4226 348.201 87.7649 349.08 89.4055C349.958 91.0296 350.397 92.9768 350.397 95.2472V121H340.354V115.705H340.056C339.443 116.898 338.623 117.951 337.595 118.862C336.568 119.757 335.333 120.461 333.891 120.975C332.45 121.472 330.784 121.721 328.895 121.721ZM331.928 114.413C333.485 114.413 334.861 114.106 336.054 113.493C337.247 112.863 338.183 112.018 338.863 110.957C339.542 109.897 339.882 108.695 339.882 107.353V103.301C339.551 103.517 339.095 103.715 338.515 103.898C337.951 104.063 337.313 104.221 336.601 104.37C335.888 104.503 335.176 104.627 334.463 104.743C333.75 104.842 333.104 104.933 332.524 105.016C331.281 105.199 330.196 105.489 329.268 105.886C328.34 106.284 327.619 106.823 327.105 107.502C326.591 108.165 326.335 108.994 326.335 109.988C326.335 111.43 326.857 112.532 327.901 113.294C328.961 114.04 330.304 114.413 331.928 114.413ZM375.013 121V70.0909H408.72V78.9652H385.776V91.0959H406.483V99.9702H385.776V121H375.013ZM430.21 121.746C426.348 121.746 423.009 120.925 420.192 119.285C417.391 117.628 415.229 115.324 413.704 112.374C412.179 109.408 411.417 105.969 411.417 102.058C411.417 98.1141 412.179 94.6671 413.704 91.7173C415.229 88.7509 417.391 86.4474 420.192 84.8068C423.009 83.1496 426.348 82.321 430.21 82.321C434.071 82.321 437.402 83.1496 440.203 84.8068C443.02 86.4474 445.191 88.7509 446.715 91.7173C448.24 94.6671 449.002 98.1141 449.002 102.058C449.002 105.969 448.24 109.408 446.715 112.374C445.191 115.324 443.02 117.628 440.203 119.285C437.402 120.925 434.071 121.746 430.21 121.746ZM430.259 113.543C432.016 113.543 433.483 113.045 434.659 112.051C435.836 111.04 436.722 109.665 437.319 107.925C437.932 106.185 438.239 104.204 438.239 101.984C438.239 99.763 437.932 97.7827 437.319 96.0426C436.722 94.3026 435.836 92.9271 434.659 91.9162C433.483 90.9053 432.016 90.3999 430.259 90.3999C428.486 90.3999 426.995 90.9053 425.785 91.9162C424.592 92.9271 423.689 94.3026 423.075 96.0426C422.479 97.7827 422.181 99.763 422.181 101.984C422.181 104.204 422.479 106.185 423.075 107.925C423.689 109.665 424.592 111.04 425.785 112.051C426.995 113.045 428.486 113.543 430.259 113.543ZM455.888 121V82.8182H466.154V89.4801H466.552C467.248 87.1103 468.416 85.3205 470.057 84.1108C471.698 82.8845 473.587 82.2713 475.725 82.2713C476.255 82.2713 476.827 82.3044 477.44 82.3707C478.053 82.437 478.592 82.5282 479.056 82.6442V92.0405C478.558 91.8913 477.871 91.7588 476.992 91.6428C476.114 91.5268 475.31 91.4688 474.581 91.4688C473.023 91.4688 471.631 91.8085 470.405 92.4879C469.195 93.1508 468.234 94.0788 467.521 95.272C466.825 96.4652 466.477 97.8407 466.477 99.3984V121H455.888ZM500.005 121.746C496.094 121.746 492.73 120.917 489.912 119.26C487.112 117.586 484.957 115.266 483.449 112.3C481.958 109.333 481.212 105.92 481.212 102.058C481.212 98.1473 481.966 94.7169 483.474 91.767C484.999 88.8007 487.161 86.4889 489.962 84.8317C492.763 83.1579 496.094 82.321 499.955 82.321C503.286 82.321 506.203 82.9259 508.705 84.1357C511.207 85.3454 513.188 87.044 514.646 89.2315C516.104 91.419 516.908 93.9877 517.057 96.9375H507.064C506.783 95.0317 506.037 93.4988 504.827 92.3388C503.634 91.1622 502.068 90.5739 500.129 90.5739C498.488 90.5739 497.055 91.0213 495.828 91.9162C494.619 92.7945 493.674 94.0788 492.995 95.7692C492.315 97.4595 491.975 99.5062 491.975 101.909C491.975 104.345 492.307 106.417 492.97 108.124C493.649 109.83 494.602 111.131 495.828 112.026C497.055 112.921 498.488 113.369 500.129 113.369C501.339 113.369 502.424 113.12 503.385 112.623C504.363 112.126 505.167 111.405 505.797 110.46C506.443 109.499 506.865 108.347 507.064 107.005H517.057C516.891 109.922 516.096 112.49 514.671 114.711C513.262 116.915 511.315 118.638 508.829 119.881C506.343 121.124 503.402 121.746 500.005 121.746ZM534.725 121.721C532.289 121.721 530.118 121.298 528.212 120.453C526.306 119.591 524.798 118.324 523.688 116.65C522.594 114.96 522.047 112.855 522.047 110.336C522.047 108.215 522.437 106.433 523.216 104.991C523.995 103.55 525.055 102.39 526.398 101.511C527.74 100.633 529.265 99.9702 530.971 99.5227C532.695 99.0753 534.501 98.7604 536.39 98.5781C538.611 98.3461 540.401 98.1307 541.76 97.9318C543.119 97.7164 544.105 97.4015 544.718 96.9872C545.331 96.5729 545.638 95.9598 545.638 95.1477V94.9986C545.638 93.4242 545.14 92.2062 544.146 91.3445C543.168 90.4827 541.776 90.0518 539.97 90.0518C538.064 90.0518 536.548 90.4744 535.421 91.3196C534.294 92.1482 533.548 93.1922 533.184 94.4517L523.39 93.6562C523.887 91.3362 524.865 89.331 526.323 87.6406C527.781 85.9337 529.662 84.6245 531.966 83.7131C534.286 82.785 536.97 82.321 540.02 82.321C542.141 82.321 544.171 82.5696 546.11 83.0668C548.065 83.5639 549.797 84.3345 551.305 85.3785C552.83 86.4226 554.031 87.7649 554.91 89.4055C555.788 91.0296 556.227 92.9768 556.227 95.2472V121H546.184V115.705H545.886C545.273 116.898 544.453 117.951 543.425 118.862C542.398 119.757 541.163 120.461 539.721 120.975C538.28 121.472 536.614 121.721 534.725 121.721ZM537.758 114.413C539.315 114.413 540.691 114.106 541.884 113.493C543.077 112.863 544.014 112.018 544.693 110.957C545.372 109.897 545.712 108.695 545.712 107.353V103.301C545.381 103.517 544.925 103.715 544.345 103.898C543.782 104.063 543.144 104.221 542.431 104.37C541.718 104.503 541.006 104.627 540.293 104.743C539.581 104.842 538.934 104.933 538.354 105.016C537.111 105.199 536.026 105.489 535.098 105.886C534.17 106.284 533.449 106.823 532.935 107.502C532.421 108.165 532.165 108.994 532.165 109.988C532.165 111.43 532.687 112.532 533.731 113.294C534.791 114.04 536.134 114.413 537.758 114.413Z" fill="white"/>
<path d="M108.634 162.986C108.474 161.382 107.792 160.135 106.585 159.247C105.379 158.359 103.741 157.915 101.673 157.915C100.268 157.915 99.0814 158.114 98.1136 158.511C97.1458 158.896 96.4034 159.433 95.8864 160.122C95.3826 160.812 95.1307 161.594 95.1307 162.469C95.1042 163.198 95.2566 163.834 95.5881 164.378C95.9328 164.921 96.4034 165.392 97 165.79C97.5966 166.174 98.286 166.512 99.0682 166.804C99.8504 167.082 100.686 167.321 101.574 167.52L105.233 168.395C107.009 168.793 108.64 169.323 110.125 169.986C111.61 170.649 112.896 171.464 113.983 172.432C115.07 173.4 115.912 174.54 116.509 175.852C117.118 177.165 117.43 178.67 117.443 180.366C117.43 182.859 116.794 185.02 115.534 186.849C114.288 188.666 112.485 190.078 110.125 191.085C107.778 192.08 104.948 192.577 101.634 192.577C98.3456 192.577 95.482 192.073 93.0426 191.065C90.6165 190.058 88.7206 188.566 87.3551 186.591C86.0028 184.602 85.2936 182.143 85.2273 179.213H93.5597C93.6525 180.579 94.0436 181.719 94.733 182.634C95.4356 183.535 96.3703 184.218 97.5369 184.682C98.7169 185.133 100.049 185.358 101.534 185.358C102.992 185.358 104.259 185.146 105.332 184.722C106.42 184.297 107.261 183.707 107.858 182.952C108.455 182.196 108.753 181.328 108.753 180.347C108.753 179.432 108.481 178.663 107.938 178.04C107.407 177.417 106.625 176.886 105.591 176.449C104.57 176.011 103.317 175.614 101.832 175.256L97.3977 174.142C93.964 173.307 91.2528 172.001 89.2642 170.224C87.2756 168.448 86.2879 166.055 86.3011 163.045C86.2879 160.58 86.9441 158.425 88.2699 156.582C89.6089 154.74 91.4451 153.301 93.7784 152.267C96.1117 151.233 98.7633 150.716 101.733 150.716C104.756 150.716 107.394 151.233 109.648 152.267C111.915 153.301 113.678 154.74 114.938 156.582C116.197 158.425 116.847 160.56 116.886 162.986H108.634ZM131.786 192.577C129.837 192.577 128.101 192.239 126.576 191.562C125.051 190.873 123.845 189.859 122.957 188.52C122.082 187.168 121.644 185.484 121.644 183.469C121.644 181.772 121.956 180.347 122.579 179.193C123.202 178.04 124.05 177.112 125.124 176.409C126.198 175.706 127.418 175.176 128.783 174.818C130.162 174.46 131.607 174.208 133.119 174.062C134.895 173.877 136.327 173.705 137.414 173.545C138.501 173.373 139.29 173.121 139.781 172.79C140.271 172.458 140.516 171.968 140.516 171.318V171.199C140.516 169.939 140.119 168.965 139.323 168.276C138.541 167.586 137.427 167.241 135.982 167.241C134.458 167.241 133.245 167.58 132.343 168.256C131.442 168.919 130.845 169.754 130.553 170.761L122.718 170.125C123.116 168.269 123.898 166.665 125.065 165.312C126.231 163.947 127.736 162.9 129.579 162.17C131.435 161.428 133.583 161.057 136.022 161.057C137.719 161.057 139.343 161.256 140.894 161.653C142.459 162.051 143.844 162.668 145.05 163.503C146.27 164.338 147.231 165.412 147.934 166.724C148.637 168.024 148.988 169.581 148.988 171.398V192H140.954V187.764H140.715C140.225 188.719 139.568 189.561 138.746 190.29C137.924 191.006 136.937 191.569 135.783 191.98C134.63 192.378 133.298 192.577 131.786 192.577ZM134.212 186.73C135.459 186.73 136.559 186.485 137.513 185.994C138.468 185.491 139.217 184.814 139.761 183.966C140.304 183.117 140.576 182.156 140.576 181.082V177.841C140.311 178.013 139.946 178.172 139.482 178.318C139.031 178.451 138.521 178.577 137.951 178.696C137.381 178.802 136.811 178.902 136.241 178.994C135.671 179.074 135.154 179.147 134.69 179.213C133.695 179.359 132.827 179.591 132.085 179.909C131.342 180.227 130.765 180.658 130.354 181.202C129.943 181.732 129.738 182.395 129.738 183.19C129.738 184.344 130.156 185.225 130.991 185.835C131.839 186.432 132.913 186.73 134.212 186.73ZM164.032 174.341V192H155.56V161.455H163.634V166.844H163.992C164.668 165.067 165.802 163.662 167.393 162.628C168.984 161.58 170.913 161.057 173.18 161.057C175.301 161.057 177.15 161.521 178.728 162.449C180.306 163.377 181.532 164.703 182.407 166.426C183.282 168.136 183.719 170.178 183.719 172.551V192H175.248V174.062C175.261 172.193 174.784 170.735 173.816 169.688C172.848 168.627 171.516 168.097 169.819 168.097C168.679 168.097 167.671 168.342 166.796 168.832C165.934 169.323 165.258 170.039 164.768 170.98C164.29 171.908 164.045 173.028 164.032 174.341ZM206.643 161.455V167.818H188.249V161.455H206.643ZM192.425 154.136H200.896V182.614C200.896 183.396 201.016 184.006 201.254 184.443C201.493 184.867 201.824 185.166 202.249 185.338C202.686 185.51 203.19 185.597 203.76 185.597C204.158 185.597 204.555 185.563 204.953 185.497C205.351 185.418 205.656 185.358 205.868 185.318L207.2 191.622C206.776 191.755 206.179 191.907 205.411 192.08C204.642 192.265 203.707 192.378 202.607 192.418C200.565 192.497 198.775 192.225 197.237 191.602C195.713 190.979 194.526 190.011 193.678 188.699C192.829 187.386 192.411 185.729 192.425 183.727V154.136ZM220.872 192.577C218.923 192.577 217.187 192.239 215.662 191.562C214.137 190.873 212.931 189.859 212.043 188.52C211.168 187.168 210.73 185.484 210.73 183.469C210.73 181.772 211.042 180.347 211.665 179.193C212.288 178.04 213.136 177.112 214.21 176.409C215.284 175.706 216.504 175.176 217.869 174.818C219.248 174.46 220.693 174.208 222.205 174.062C223.981 173.877 225.413 173.705 226.5 173.545C227.587 173.373 228.376 173.121 228.866 172.79C229.357 172.458 229.602 171.968 229.602 171.318V171.199C229.602 169.939 229.205 168.965 228.409 168.276C227.627 167.586 226.513 167.241 225.068 167.241C223.544 167.241 222.33 167.58 221.429 168.256C220.527 168.919 219.931 169.754 219.639 170.761L211.804 170.125C212.202 168.269 212.984 166.665 214.151 165.312C215.317 163.947 216.822 162.9 218.665 162.17C220.521 161.428 222.669 161.057 225.108 161.057C226.805 161.057 228.429 161.256 229.98 161.653C231.545 162.051 232.93 162.668 234.136 163.503C235.356 164.338 236.317 165.412 237.02 166.724C237.723 168.024 238.074 169.581 238.074 171.398V192H230.04V187.764H229.801C229.311 188.719 228.654 189.561 227.832 190.29C227.01 191.006 226.023 191.569 224.869 191.98C223.716 192.378 222.384 192.577 220.872 192.577ZM223.298 186.73C224.545 186.73 225.645 186.485 226.599 185.994C227.554 185.491 228.303 184.814 228.847 183.966C229.39 183.117 229.662 182.156 229.662 181.082V177.841C229.397 178.013 229.032 178.172 228.568 178.318C228.117 178.451 227.607 178.577 227.037 178.696C226.467 178.802 225.897 178.902 225.327 178.994C224.757 179.074 224.24 179.147 223.776 179.213C222.781 179.359 221.913 179.591 221.17 179.909C220.428 180.227 219.851 180.658 219.44 181.202C219.029 181.732 218.824 182.395 218.824 183.19C218.824 184.344 219.241 185.225 220.077 185.835C220.925 186.432 221.999 186.73 223.298 186.73ZM253.118 174.341V192H244.646V161.455H252.72V166.844H253.078C253.754 165.067 254.888 163.662 256.479 162.628C258.07 161.58 259.999 161.057 262.266 161.057C264.387 161.057 266.236 161.521 267.814 162.449C269.392 163.377 270.618 164.703 271.493 166.426C272.368 168.136 272.805 170.178 272.805 172.551V192H264.334V174.062C264.347 172.193 263.87 170.735 262.902 169.688C261.934 168.627 260.602 168.097 258.905 168.097C257.765 168.097 256.757 168.342 255.882 168.832C255.02 169.323 254.344 170.039 253.854 170.98C253.376 171.908 253.131 173.028 253.118 174.341ZM290.738 192.497C288.418 192.497 286.317 191.901 284.434 190.707C282.565 189.501 281.08 187.731 279.979 185.398C278.892 183.051 278.349 180.174 278.349 176.767C278.349 173.267 278.912 170.357 280.039 168.037C281.166 165.704 282.664 163.96 284.533 162.807C286.416 161.64 288.478 161.057 290.718 161.057C292.428 161.057 293.853 161.348 294.994 161.932C296.147 162.502 297.075 163.218 297.778 164.08C298.494 164.928 299.037 165.763 299.408 166.585H299.667V151.273H308.119V192H299.766V187.108H299.408C299.011 187.956 298.447 188.798 297.718 189.634C297.002 190.455 296.067 191.138 294.914 191.682C293.774 192.225 292.382 192.497 290.738 192.497ZM293.423 185.756C294.788 185.756 295.942 185.384 296.883 184.642C297.837 183.886 298.567 182.832 299.07 181.48C299.587 180.128 299.846 178.544 299.846 176.727C299.846 174.911 299.594 173.333 299.09 171.994C298.586 170.655 297.857 169.621 296.903 168.892C295.948 168.163 294.788 167.798 293.423 167.798C292.031 167.798 290.857 168.176 289.903 168.932C288.948 169.687 288.226 170.735 287.735 172.074C287.245 173.413 286.999 174.964 286.999 176.727C286.999 178.504 287.245 180.075 287.735 181.44C288.239 182.793 288.961 183.853 289.903 184.622C290.857 185.378 292.031 185.756 293.423 185.756ZM329.004 192.597C325.862 192.597 323.158 191.96 320.891 190.688C318.637 189.402 316.9 187.585 315.68 185.239C314.461 182.879 313.851 180.088 313.851 176.866C313.851 173.724 314.461 170.967 315.68 168.594C316.9 166.221 318.617 164.371 320.831 163.045C323.058 161.72 325.67 161.057 328.666 161.057C330.681 161.057 332.557 161.382 334.294 162.031C336.044 162.668 337.569 163.629 338.868 164.915C340.18 166.201 341.201 167.818 341.93 169.767C342.66 171.703 343.024 173.97 343.024 176.568V178.895H317.232V173.645H335.05C335.05 172.425 334.785 171.345 334.254 170.403C333.724 169.462 332.988 168.726 332.047 168.196C331.119 167.652 330.038 167.381 328.805 167.381C327.519 167.381 326.379 167.679 325.385 168.276C324.404 168.859 323.635 169.648 323.078 170.642C322.521 171.623 322.236 172.717 322.223 173.923V178.915C322.223 180.426 322.501 181.732 323.058 182.832C323.628 183.933 324.43 184.781 325.464 185.378C326.499 185.974 327.725 186.273 329.143 186.273C330.085 186.273 330.946 186.14 331.729 185.875C332.511 185.61 333.18 185.212 333.737 184.682C334.294 184.152 334.718 183.502 335.01 182.733L342.845 183.25C342.447 185.133 341.632 186.777 340.399 188.182C339.179 189.574 337.602 190.661 335.666 191.443C333.744 192.212 331.523 192.597 329.004 192.597ZM348.553 192V161.455H356.766V166.784H357.084C357.641 164.888 358.575 163.456 359.888 162.489C361.2 161.508 362.712 161.017 364.422 161.017C364.846 161.017 365.304 161.044 365.794 161.097C366.285 161.15 366.715 161.223 367.087 161.315V168.832C366.689 168.713 366.139 168.607 365.436 168.514C364.733 168.421 364.09 168.375 363.507 168.375C362.261 168.375 361.147 168.647 360.166 169.19C359.198 169.721 358.429 170.463 357.859 171.418C357.303 172.372 357.024 173.473 357.024 174.719V192H348.553ZM407.56 165.531H398.85C398.691 164.404 398.366 163.403 397.876 162.528C397.385 161.64 396.755 160.884 395.987 160.261C395.218 159.638 394.329 159.161 393.322 158.83C392.327 158.498 391.247 158.332 390.08 158.332C387.972 158.332 386.136 158.856 384.572 159.903C383.007 160.937 381.794 162.449 380.933 164.438C380.071 166.413 379.64 168.812 379.64 171.636C379.64 174.54 380.071 176.979 380.933 178.955C381.808 180.93 383.027 182.421 384.592 183.429C386.156 184.437 387.966 184.94 390.021 184.94C391.174 184.94 392.241 184.788 393.222 184.483C394.217 184.178 395.098 183.734 395.867 183.151C396.636 182.554 397.272 181.831 397.776 180.983C398.293 180.134 398.651 179.167 398.85 178.08L407.56 178.119C407.335 179.989 406.772 181.792 405.87 183.528C404.982 185.252 403.782 186.796 402.271 188.162C400.772 189.514 398.983 190.588 396.901 191.384C394.833 192.166 392.493 192.557 389.881 192.557C386.249 192.557 383.001 191.735 380.137 190.091C377.287 188.447 375.033 186.067 373.376 182.952C371.732 179.836 370.91 176.064 370.91 171.636C370.91 167.195 371.745 163.417 373.415 160.301C375.086 157.186 377.353 154.812 380.217 153.182C383.08 151.538 386.302 150.716 389.881 150.716C392.241 150.716 394.429 151.047 396.444 151.71C398.472 152.373 400.269 153.341 401.833 154.614C403.397 155.873 404.67 157.418 405.651 159.247C406.646 161.077 407.282 163.171 407.56 165.531ZM427.377 192.597C424.288 192.597 421.617 191.94 419.363 190.628C417.122 189.302 415.392 187.459 414.173 185.099C412.953 182.726 412.343 179.975 412.343 176.847C412.343 173.691 412.953 170.934 414.173 168.574C415.392 166.201 417.122 164.358 419.363 163.045C421.617 161.72 424.288 161.057 427.377 161.057C430.466 161.057 433.131 161.72 435.371 163.045C437.625 164.358 439.362 166.201 440.582 168.574C441.801 170.934 442.411 173.691 442.411 176.847C442.411 179.975 441.801 182.726 440.582 185.099C439.362 187.459 437.625 189.302 435.371 190.628C433.131 191.94 430.466 192.597 427.377 192.597ZM427.417 186.034C428.822 186.034 429.996 185.636 430.937 184.841C431.878 184.032 432.587 182.932 433.065 181.54C433.555 180.148 433.8 178.563 433.8 176.787C433.8 175.01 433.555 173.426 433.065 172.034C432.587 170.642 431.878 169.542 430.937 168.733C429.996 167.924 428.822 167.52 427.417 167.52C425.998 167.52 424.805 167.924 423.837 168.733C422.883 169.542 422.16 170.642 421.67 172.034C421.192 173.426 420.954 175.01 420.954 176.787C420.954 178.563 421.192 180.148 421.67 181.54C422.16 182.932 422.883 184.032 423.837 184.841C424.805 185.636 425.998 186.034 427.417 186.034ZM459.175 192.497C456.855 192.497 454.754 191.901 452.871 190.707C451.002 189.501 449.517 187.731 448.417 185.398C447.33 183.051 446.786 180.174 446.786 176.767C446.786 173.267 447.35 170.357 448.477 168.037C449.603 165.704 451.102 163.96 452.971 162.807C454.853 161.64 456.915 161.057 459.156 161.057C460.866 161.057 462.291 161.348 463.431 161.932C464.585 162.502 465.513 163.218 466.215 164.08C466.931 164.928 467.475 165.763 467.846 166.585H468.104V151.273H476.556V192H468.204V187.108H467.846C467.448 187.956 466.885 188.798 466.156 189.634C465.44 190.455 464.505 191.138 463.352 191.682C462.211 192.225 460.819 192.497 459.175 192.497ZM461.86 185.756C463.226 185.756 464.379 185.384 465.32 184.642C466.275 183.886 467.004 182.832 467.508 181.48C468.025 180.128 468.283 178.544 468.283 176.727C468.283 174.911 468.031 173.333 467.528 171.994C467.024 170.655 466.295 169.621 465.34 168.892C464.386 168.163 463.226 167.798 461.86 167.798C460.468 167.798 459.295 168.176 458.34 168.932C457.386 169.687 456.663 170.735 456.173 172.074C455.682 173.413 455.437 174.964 455.437 176.727C455.437 178.504 455.682 180.075 456.173 181.44C456.676 182.793 457.399 183.853 458.34 184.622C459.295 185.378 460.468 185.756 461.86 185.756ZM497.442 192.597C494.3 192.597 491.595 191.96 489.328 190.688C487.074 189.402 485.338 187.585 484.118 185.239C482.898 182.879 482.288 180.088 482.288 176.866C482.288 173.724 482.898 170.967 484.118 168.594C485.338 166.221 487.054 164.371 489.268 163.045C491.496 161.72 494.107 161.057 497.104 161.057C499.119 161.057 500.995 161.382 502.732 162.031C504.482 162.668 506.006 163.629 507.305 164.915C508.618 166.201 509.639 167.818 510.368 169.767C511.097 171.703 511.462 173.97 511.462 176.568V178.895H485.669V173.645H503.487C503.487 172.425 503.222 171.345 502.692 170.403C502.161 169.462 501.426 168.726 500.484 168.196C499.556 167.652 498.476 167.381 497.243 167.381C495.957 167.381 494.817 167.679 493.822 168.276C492.841 168.859 492.072 169.648 491.516 170.642C490.959 171.623 490.674 172.717 490.661 173.923V178.915C490.661 180.426 490.939 181.732 491.496 182.832C492.066 183.933 492.868 184.781 493.902 185.378C494.936 185.974 496.162 186.273 497.581 186.273C498.522 186.273 499.384 186.14 500.166 185.875C500.948 185.61 501.618 185.212 502.175 184.682C502.732 184.152 503.156 183.502 503.447 182.733L511.283 183.25C510.885 185.133 510.07 186.777 508.837 188.182C507.617 189.574 506.039 190.661 504.104 191.443C502.181 192.212 499.961 192.597 497.442 192.597ZM516.99 192V161.455H525.203V166.784H525.521C526.078 164.888 527.013 163.456 528.325 162.489C529.638 161.508 531.149 161.017 532.859 161.017C533.284 161.017 533.741 161.044 534.232 161.097C534.722 161.15 535.153 161.223 535.524 161.315V168.832C535.126 168.713 534.576 168.607 533.874 168.514C533.171 168.421 532.528 168.375 531.945 168.375C530.698 168.375 529.585 168.647 528.604 169.19C527.636 169.721 526.867 170.463 526.297 171.418C525.74 172.372 525.462 173.473 525.462 174.719V192H516.99ZM565.319 170.165L557.563 170.642C557.431 169.979 557.146 169.383 556.708 168.852C556.271 168.309 555.694 167.878 554.978 167.56C554.275 167.228 553.433 167.062 552.452 167.062C551.14 167.062 550.033 167.341 549.131 167.898C548.23 168.441 547.779 169.17 547.779 170.085C547.779 170.814 548.071 171.431 548.654 171.935C549.237 172.438 550.238 172.843 551.657 173.148L557.185 174.261C560.155 174.871 562.369 175.852 563.827 177.205C565.286 178.557 566.015 180.333 566.015 182.534C566.015 184.536 565.425 186.293 564.245 187.804C563.078 189.315 561.474 190.495 559.433 191.344C557.404 192.179 555.064 192.597 552.413 192.597C548.369 192.597 545.147 191.755 542.748 190.071C540.362 188.374 538.963 186.067 538.552 183.151L546.884 182.713C547.136 183.946 547.746 184.887 548.714 185.537C549.682 186.173 550.921 186.491 552.433 186.491C553.917 186.491 555.111 186.206 556.012 185.636C556.927 185.053 557.391 184.304 557.404 183.389C557.391 182.62 557.066 181.991 556.43 181.5C555.793 180.996 554.812 180.612 553.487 180.347L548.197 179.293C545.214 178.696 542.993 177.662 541.535 176.19C540.09 174.719 539.367 172.843 539.367 170.562C539.367 168.6 539.897 166.91 540.958 165.491C542.032 164.073 543.537 162.979 545.472 162.21C547.421 161.441 549.701 161.057 552.313 161.057C556.171 161.057 559.207 161.872 561.421 163.503C563.648 165.134 564.948 167.354 565.319 170.165Z" fill="white"/>
<path d="M103.156 264L110.315 220.364H117.134L109.974 264H103.156ZM83.6179 253.176L84.7472 246.358H118.838L117.709 253.176H83.6179ZM87.8153 264L94.9744 220.364H101.793L94.6335 264H87.8153ZM86.1108 238.006L87.2614 231.188H121.352L120.202 238.006H86.1108ZM125.502 264V257.352L141.034 242.97C142.355 241.692 143.463 240.541 144.358 239.518C145.267 238.496 145.956 237.494 146.425 236.514C146.894 235.52 147.128 234.447 147.128 233.297C147.128 232.018 146.837 230.918 146.255 229.994C145.672 229.057 144.877 228.339 143.868 227.842C142.86 227.331 141.716 227.075 140.438 227.075C139.103 227.075 137.938 227.345 136.944 227.885C135.949 228.425 135.182 229.199 134.642 230.207C134.103 231.216 133.833 232.416 133.833 233.808H125.076C125.076 230.953 125.722 228.474 127.015 226.372C128.307 224.27 130.118 222.643 132.448 221.493C134.777 220.342 137.462 219.767 140.502 219.767C143.627 219.767 146.347 220.321 148.662 221.429C150.992 222.523 152.803 224.043 154.096 225.989C155.388 227.935 156.034 230.165 156.034 232.679C156.034 234.327 155.708 235.953 155.054 237.558C154.415 239.163 153.272 240.946 151.624 242.906C149.976 244.852 147.654 247.189 144.657 249.916L138.286 256.159V256.457H156.61V264H125.502ZM180.404 264.959C176.739 264.945 173.586 264.043 170.944 262.253C168.316 260.463 166.292 257.871 164.871 254.476C163.465 251.081 162.769 246.997 162.783 242.224C162.783 237.466 163.487 233.411 164.893 230.058C166.313 226.706 168.337 224.156 170.965 222.409C173.607 220.648 176.754 219.767 180.404 219.767C184.055 219.767 187.194 220.648 189.822 222.409C192.464 224.17 194.495 226.727 195.915 230.08C197.336 233.418 198.039 237.466 198.025 242.224C198.025 247.011 197.315 251.102 195.894 254.497C194.488 257.892 192.471 260.484 189.843 262.274C187.215 264.064 184.069 264.959 180.404 264.959ZM180.404 257.31C182.904 257.31 184.9 256.053 186.391 253.538C187.883 251.024 188.621 247.253 188.607 242.224C188.607 238.915 188.266 236.159 187.585 233.957C186.917 231.756 185.965 230.101 184.729 228.993C183.508 227.885 182.066 227.331 180.404 227.331C177.918 227.331 175.93 228.574 174.438 231.06C172.947 233.545 172.194 237.267 172.18 242.224C172.18 245.577 172.513 248.375 173.181 250.619C173.863 252.849 174.822 254.526 176.058 255.648C177.293 256.756 178.742 257.31 180.404 257.31ZM204.603 264V257.352L220.136 242.97C221.457 241.692 222.565 240.541 223.46 239.518C224.369 238.496 225.058 237.494 225.527 236.514C225.995 235.52 226.23 234.447 226.23 233.297C226.23 232.018 225.939 230.918 225.356 229.994C224.774 229.057 223.978 228.339 222.97 227.842C221.961 227.331 220.818 227.075 219.539 227.075C218.204 227.075 217.039 227.345 216.045 227.885C215.051 228.425 214.284 229.199 213.744 230.207C213.204 231.216 212.934 232.416 212.934 233.808H204.177C204.177 230.953 204.824 228.474 206.116 226.372C207.409 224.27 209.22 222.643 211.549 221.493C213.879 220.342 216.564 219.767 219.603 219.767C222.728 219.767 225.449 220.321 227.764 221.429C230.093 222.523 231.904 224.043 233.197 225.989C234.49 227.935 235.136 230.165 235.136 232.679C235.136 234.327 234.809 235.953 234.156 237.558C233.517 239.163 232.373 240.946 230.725 242.906C229.078 244.852 226.755 247.189 223.758 249.916L217.387 256.159V256.457H235.711V264H204.603ZM258.526 264.597C255.344 264.597 252.51 264.05 250.024 262.956C247.553 261.848 245.599 260.328 244.165 258.396C242.744 256.45 242.013 254.206 241.97 251.663H251.26C251.317 252.729 251.665 253.666 252.304 254.476C252.957 255.271 253.824 255.889 254.903 256.33C255.983 256.77 257.197 256.99 258.547 256.99C259.953 256.99 261.196 256.741 262.276 256.244C263.355 255.747 264.2 255.058 264.811 254.178C265.422 253.297 265.727 252.281 265.727 251.131C265.727 249.966 265.401 248.936 264.747 248.041C264.108 247.132 263.185 246.422 261.977 245.911C260.784 245.399 259.364 245.143 257.716 245.143H253.646V238.368H257.716C259.108 238.368 260.337 238.126 261.402 237.643C262.482 237.161 263.32 236.493 263.916 235.641C264.513 234.774 264.811 233.766 264.811 232.615C264.811 231.521 264.548 230.562 264.023 229.739C263.511 228.901 262.787 228.247 261.849 227.778C260.926 227.31 259.847 227.075 258.611 227.075C257.361 227.075 256.217 227.303 255.18 227.757C254.143 228.197 253.312 228.83 252.688 229.653C252.062 230.477 251.729 231.443 251.686 232.551H242.844C242.886 230.037 243.604 227.821 244.996 225.903C246.388 223.986 248.263 222.487 250.621 221.408C252.993 220.314 255.67 219.767 258.653 219.767C261.665 219.767 264.3 220.314 266.558 221.408C268.817 222.501 270.571 223.979 271.821 225.839C273.085 227.686 273.71 229.76 273.696 232.061C273.71 234.504 272.95 236.543 271.416 238.176C269.896 239.81 267.915 240.847 265.472 241.287V241.628C268.682 242.04 271.125 243.155 272.801 244.973C274.491 246.777 275.33 249.036 275.315 251.749C275.33 254.234 274.612 256.443 273.163 258.375C271.729 260.307 269.747 261.827 267.219 262.935C264.69 264.043 261.793 264.597 258.526 264.597Z" fill="white"/>
</svg>
